<?xml version="1.0" encoding="UTF-8" standalone="no"?>
<!-- Created with Inkscape (http://www.inkscape.org/) -->

<svg
   xmlns:dc="http://purl.org/dc/elements/1.1/"
   xmlns:cc="http://creativecommons.org/ns#"
   xmlns:rdf="http://www.w3.org/1999/02/22-rdf-syntax-ns#"
   xmlns:svg="http://www.w3.org/2000/svg"
   xmlns="http://www.w3.org/2000/svg"
   xmlns:sodipodi="http://sodipodi.sourceforge.net/DTD/sodipodi-0.dtd"
   xmlns:inkscape="http://www.inkscape.org/namespaces/inkscape"
   width="265"
   height="64"
   viewBox="0 0 70.114581 16.933334"
   version="1.1"
   id="svg508"
   inkscape:export-filename="/home/greg/git/dymo-labelmanager/Lena Parl Fab Lab Logo.png"
   inkscape:export-xdpi="96"
   inkscape:export-ydpi="96"
   inkscape:version="0.92.3 (2405546, 2018-03-11)"
   sodipodi:docname="64px Fab Lab Logo.svg">
  <defs
     id="defs502" />
  <sodipodi:namedview
     id="base"
     pagecolor="#ffffff"
     bordercolor="#666666"
     borderopacity="1.0"
     inkscape:pageopacity="0.0"
     inkscape:pageshadow="2"
     inkscape:zoom="2.8"
     inkscape:cx="176.02018"
     inkscape:cy="39.059924"
     inkscape:document-units="mm"
     inkscape:current-layer="layer1"
     showgrid="false"
     units="px"
     inkscape:window-width="1853"
     inkscape:window-height="1025"
     inkscape:window-x="67"
     inkscape:window-y="27"
     inkscape:window-maximized="1" />
  <metadata
     id="metadata505">
    <rdf:RDF>
      <cc:Work
         rdf:about="">
        <dc:format>image/svg+xml</dc:format>
        <dc:type
           rdf:resource="http://purl.org/dc/dcmitype/StillImage" />
        <dc:title></dc:title>
      </cc:Work>
    </rdf:RDF>
  </metadata>
  <g
     inkscape:label="Layer 1"
     inkscape:groupmode="layer"
     id="layer1"
     transform="translate(0,-280.06666)">
    <g
       style="fill:#000000;stroke:none;stroke-width:0.76200002;stroke-miterlimit:4;stroke-dasharray:none;shape-rendering:crispEdges"
       transform="matrix(0.10816722,0,0,0.10816722,-4.1866959,274.94171)"
       id="g4926">
      <g
         style="fill:#000000;stroke:none;stroke-width:0.7379638;stroke-miterlimit:4;stroke-dasharray:none"
         transform="matrix(1.032571,0,0,1.032571,-3.6975026,8.0938721)"
         id="g4916">
        <g
           id="g4906"
           transform="matrix(1.4746294,0,0,1.4746294,-45.192677,-484.87105)"
           style="fill:#000000;stroke:none;stroke-width:0.50044018;stroke-miterlimit:4;stroke-dasharray:none">
          <g
             id="g4886"
             style="fill:#000000;stroke:none;stroke-width:0.50044018;stroke-miterlimit:4;stroke-dasharray:none">
            <path
               inkscape:connector-curvature="0"
               id="path4878"
               style="fill:#000000;fill-opacity:1;fill-rule:nonzero;stroke:none;stroke-width:0.50044018;stroke-miterlimit:4;stroke-dasharray:none"
               d="m 173.73415,368.50031 h 6.16171 v 29.46395 h 18.45287 v 5.61712 h -24.61458 z" />
            <path
               inkscape:connector-curvature="0"
               id="path4880"
               style="fill:#000000;fill-opacity:1;fill-rule:nonzero;stroke:none;stroke-width:0.50044018;stroke-miterlimit:4;stroke-dasharray:none"
               d="m 204.76098,368.50031 h 26.01535 v 5.51045 h -19.84802 v 9.12046 h 17.58966 v 5.51607 h -17.58966 v 9.42083 h 20.10347 v 5.51326 h -26.2708 z" />
            <path
               inkscape:connector-curvature="0"
               id="path4882"
               style="fill:#000000;fill-opacity:1;fill-rule:nonzero;stroke:none;stroke-width:0.50044018;stroke-miterlimit:4;stroke-dasharray:none"
               d="m 238.3551,368.50031 h 5.70415 l 18.79814,24.26088 v -24.26088 h 6.06347 v 35.08107 h -5.15816 l -19.34835,-24.95986 v 24.95986 h -6.05925 z" />
            <path
               inkscape:connector-curvature="0"
               id="path4884"
               style="fill:#000000;fill-opacity:1;fill-rule:nonzero;stroke:none;stroke-width:0.50044018;stroke-miterlimit:4;stroke-dasharray:none"
               d="m 299.2066,389.64721 -6.07048,-14.0358 -6.01153,14.0358 z m -8.83132,-21.39898 h 5.71537 l 15.43657,35.33372 h -6.51261 l -3.55948,-8.4678 h -16.5861 l -3.6072,8.4678 h -6.31751 z" />
          </g>
          <g
             id="g4904"
             style="fill:#000000;stroke:none;stroke-width:0.50044018;stroke-miterlimit:4;stroke-dasharray:none">
            <g
               id="g4890"
               transform="matrix(1.4035797,0,0,-1.4035797,345.92082,386.73871)"
               style="fill:#000000;stroke:none;stroke-width:0.3565456;stroke-miterlimit:4;stroke-dasharray:none">
              <path
                 d="m 0,0 c 3.32,0 5.389,1.854 5.389,4.463 v 0.07 C 5.389,7.463 3.284,8.998 0,8.998 H -5.104 V 0 Z m -9.502,12.994 h 9.858 c 5.855,0 9.503,-3.316 9.503,-8.353 V 4.568 c 0,-5.607 -4.505,-8.533 -10.006,-8.533 H -5.104 V -12 h -4.398 z"
                 style="fill:#000000;fill-opacity:1;fill-rule:nonzero;stroke:none;stroke-width:0.3565456;stroke-miterlimit:4;stroke-dasharray:none"
                 id="path4888"
                 inkscape:connector-curvature="0" />
            </g>
            <g
               id="g4894"
               transform="matrix(1.4035797,0,0,-1.4035797,383.81887,389.64721)"
               style="fill:#000000;stroke:none;stroke-width:0.3565456;stroke-miterlimit:4;stroke-dasharray:none">
              <path
                 d="M 0,0 -4.322,10 -8.606,0 Z m -6.288,15.246 h 4.073 L 8.783,-9.928 H 4.14 l -2.538,6.033 h -11.818 l -2.571,-6.033 h -4.496 z"
                 style="fill:#000000;fill-opacity:1;fill-rule:nonzero;stroke:none;stroke-width:0.3565456;stroke-miterlimit:4;stroke-dasharray:none"
                 id="path4892"
                 inkscape:connector-curvature="0" />
            </g>
            <g
               id="g4898"
               transform="matrix(1.4035797,0,0,-1.4035797,417.35123,385.88884)"
               style="fill:#000000;stroke:none;stroke-width:0.3565456;stroke-miterlimit:4;stroke-dasharray:none">
              <path
                 d="m 0,0 c 3.144,0 5.142,1.641 5.142,4.18 v 0.068 c 0,2.68 -1.926,4.145 -5.176,4.145 H -6.426 V 0 Z M -10.818,12.389 H 0.323 c 3.144,0 5.606,-0.924 7.205,-2.5 C 8.854,8.537 9.605,6.678 9.605,4.502 V 4.426 c 0,-4.102 -2.467,-6.569 -5.927,-7.567 l 6.746,-9.464 H 5.213 l -6.14,8.712 h -5.499 v -8.712 h -4.392 z"
                 style="fill:#000000;fill-opacity:1;fill-rule:nonzero;stroke:none;stroke-width:0.3565456;stroke-miterlimit:4;stroke-dasharray:none"
                 id="path4896"
                 inkscape:connector-curvature="0" />
            </g>
            <g
               id="g4902"
               transform="matrix(1.4035797,0,0,-1.4035797,438.4076,368.50031)"
               style="fill:#000000;stroke:none;stroke-width:0.3565456;stroke-miterlimit:4;stroke-dasharray:none">
              <path
                 d="M 0,0 H 4.394 V -12.566 L 16.284,0 h 5.423 l -10.43,-10.748 10.895,-14.246 h -5.354 l -8.536,11.248 -3.888,-3.998 v -7.25 H 0 Z"
                 style="fill:#000000;fill-opacity:1;fill-rule:nonzero;stroke:none;stroke-width:0.3565456;stroke-miterlimit:4;stroke-dasharray:none"
                 id="path4900"
                 inkscape:connector-curvature="0" />
            </g>
          </g>
        </g>
        <g
           aria-label="FAB LAB"
           transform="matrix(0.65680147,0,0,0.65680147,-249.96274,-869.4282)"
           style="font-style:normal;font-weight:normal;font-size:40px;line-height:18px;font-family:sans-serif;letter-spacing:0px;word-spacing:0px;fill:#000000;fill-opacity:1;stroke:none;stroke-width:1.12357211;stroke-miterlimit:4;stroke-dasharray:none"
           id="flowRoot4914">
          <path
             d="m 780.68496,1523.7311 h -50.6233 v 20.4711 h 46.92817 v 21.2839 h -46.92817 v 47.0021 h -28.2308 v -110.041 h 78.8541 z"
             style="font-style:normal;font-variant:normal;font-weight:bold;font-stretch:normal;font-size:151.35256958px;font-family:'Gotham HTF';-inkscape-font-specification:'Gotham HTF Bold';font-variant-ligatures:normal;font-variant-caps:normal;font-variant-numeric:normal;font-feature-settings:normal;text-align:center;writing-mode:lr-tb;text-anchor:middle;fill:#000000;stroke:none;stroke-width:1.12357211;stroke-miterlimit:4;stroke-dasharray:none"
             id="path4971"
             inkscape:connector-curvature="0" />
          <path
             d="m 901.95916,1612.4882 h -29.33934 l -7.61197,-22.2447 H 824.2136 l -7.61197,22.2447 h -28.60031 l 40.64644,-110.041 h 32.66496 z m -43.82425,-42.4201 -13.52418,-39.464 -13.52418,39.464 z"
             style="font-style:normal;font-variant:normal;font-weight:bold;font-stretch:normal;font-size:151.35256958px;font-family:'Gotham HTF';-inkscape-font-specification:'Gotham HTF Bold';font-variant-ligatures:normal;font-variant-caps:normal;font-variant-numeric:normal;font-feature-settings:normal;text-align:center;writing-mode:lr-tb;text-anchor:middle;fill:#000000;stroke:none;stroke-width:1.12357211;stroke-miterlimit:4;stroke-dasharray:none"
             id="path4973"
             inkscape:connector-curvature="0" />
          <path
             d="m 1012.0741,1578.7886 q 0,7.9815 -3.2517,14.2632 -3.1778,6.2817 -8.7944,10.4203 -6.50348,4.8775 -14.33716,6.9468 -7.75977,2.0693 -19.732,2.0693 h -48.0367 v -110.041 h 42.71571 q 13.30248,0 19.43639,0.8868 6.20782,0.8868 12.26784,3.9168 6.28172,3.1779 9.31172,8.5728 3.1039,5.3209 3.1039,12.1939 0,7.9815 -4.2124,14.1154 -4.21248,6.06 -11.89835,9.4595 v 0.5912 q 10.78978,2.1432 17.07155,8.8684 6.3556,6.7251 6.3556,17.7366 z m -36.36011,-45.2284 q 0,-2.7344 -1.40415,-5.4688 -1.33025,-2.7344 -4.80367,-4.0647 -3.10391,-1.1824 -7.75978,-1.2563 -4.58196,-0.1478 -12.93296,-0.1478 h -2.66049 v 23.2793 h 4.43416 q 6.72514,0 11.4549,-0.2217 4.72977,-0.2217 7.46417,-1.478 3.84294,-1.6998 5.02538,-4.3603 1.18244,-2.7344 1.18244,-6.2817 z m 6.94685,44.785 q 0,-5.2471 -2.06928,-8.0554 -1.99537,-2.8822 -6.87294,-4.2864 -3.32562,-0.9607 -9.16393,-1.0346 -5.8383,-0.074 -12.19393,-0.074 h -6.20782 v 27.4179 h 2.06927 q 11.97223,0 17.14541,-0.074 5.17319,-0.074 9.53344,-1.9215 4.43416,-1.8476 6.06002,-4.8776 1.69976,-3.1039 1.69976,-7.0946 z"
             style="font-style:normal;font-variant:normal;font-weight:bold;font-stretch:normal;font-size:151.35256958px;font-family:'Gotham HTF';-inkscape-font-specification:'Gotham HTF Bold';font-variant-ligatures:normal;font-variant-caps:normal;font-variant-numeric:normal;font-feature-settings:normal;text-align:center;writing-mode:lr-tb;text-anchor:middle;fill:#000000;stroke:none;stroke-width:1.12357211;stroke-miterlimit:4;stroke-dasharray:none"
             id="path4975"
             inkscape:connector-curvature="0" />
          <path
             d="m 1164.3135,1612.4882 h -79.3714 v -110.041 h 28.3786 v 88.757 h 50.9928 z"
             style="font-style:normal;font-variant:normal;font-weight:bold;font-stretch:normal;font-size:151.35256958px;font-family:'Gotham HTF';-inkscape-font-specification:'Gotham HTF Bold';font-variant-ligatures:normal;font-variant-caps:normal;font-variant-numeric:normal;font-feature-settings:normal;text-align:center;writing-mode:lr-tb;text-anchor:middle;fill:#000000;stroke:none;stroke-width:1.12357211;stroke-miterlimit:4;stroke-dasharray:none"
             id="path4977"
             inkscape:connector-curvature="0" />
          <path
             d="m 1283.0011,1612.4882 h -29.3393 l -7.612,-22.2447 h -40.7943 l -7.6119,22.2447 h -28.6003 l 40.6464,-110.041 h 32.665 z m -43.8243,-42.4201 -13.5241,-39.464 -13.5242,39.464 z"
             style="font-style:normal;font-variant:normal;font-weight:bold;font-stretch:normal;font-size:151.35256958px;font-family:'Gotham HTF';-inkscape-font-specification:'Gotham HTF Bold';font-variant-ligatures:normal;font-variant-caps:normal;font-variant-numeric:normal;font-feature-settings:normal;text-align:center;writing-mode:lr-tb;text-anchor:middle;fill:#000000;stroke:none;stroke-width:1.12357211;stroke-miterlimit:4;stroke-dasharray:none"
             id="path4979"
             inkscape:connector-curvature="0" />
          <path
             d="m 1393.116,1578.7886 q 0,7.9815 -3.2517,14.2632 -3.1778,6.2817 -8.7944,10.4203 -6.5035,4.8775 -14.3372,6.9468 -7.7597,2.0693 -19.732,2.0693 h -48.0367 v -110.041 h 42.7158 q 13.3024,0 19.4363,0.8868 6.2079,0.8868 12.2679,3.9168 6.2817,3.1779 9.3117,8.5728 3.1039,5.3209 3.1039,12.1939 0,7.9815 -4.2124,14.1154 -4.2125,6.06 -11.8984,9.4595 v 0.5912 q 10.7898,2.1432 17.0716,8.8684 6.3556,6.7251 6.3556,17.7366 z m -36.3601,-45.2284 q 0,-2.7344 -1.4042,-5.4688 -1.3302,-2.7344 -4.8036,-4.0647 -3.1039,-1.1824 -7.7598,-1.2563 -4.582,-0.1478 -12.933,-0.1478 h -2.6605 v 23.2793 h 4.4342 q 6.7251,0 11.4549,-0.2217 4.7298,-0.2217 7.4642,-1.478 3.8429,-1.6998 5.0253,-4.3603 1.1825,-2.7344 1.1825,-6.2817 z m 6.9468,44.785 q 0,-5.2471 -2.0692,-8.0554 -1.9954,-2.8822 -6.873,-4.2864 -3.3256,-0.9607 -9.1639,-1.0346 -5.8383,-0.074 -12.1939,-0.074 h -6.2079 v 27.4179 h 2.0693 q 11.9722,0 17.1454,-0.074 5.1732,-0.074 9.5335,-1.9215 4.4341,-1.8476 6.06,-4.8776 1.6997,-3.1039 1.6997,-7.0946 z"
             style="font-style:normal;font-variant:normal;font-weight:bold;font-stretch:normal;font-size:151.35256958px;font-family:'Gotham HTF';-inkscape-font-specification:'Gotham HTF Bold';font-variant-ligatures:normal;font-variant-caps:normal;font-variant-numeric:normal;font-feature-settings:normal;text-align:center;writing-mode:lr-tb;text-anchor:middle;fill:#000000;stroke:none;stroke-width:1.12357211;stroke-miterlimit:4;stroke-dasharray:none"
             id="path4981"
             inkscape:connector-curvature="0" />
        </g>
      </g>
      <g
         style="fill:#000000;stroke:none;stroke-width:0.76200002;stroke-miterlimit:4;stroke-dasharray:none"
         transform="translate(-564.47633,29.274929)"
         id="g4924">
        <path
           d="m 666.64583,157.21185 v -18.66851 c 0.66998,-0.25625 1.32363,-0.56204 1.95124,-0.93253 8.90063,-5.24727 9.8363,-20.15505 2.08809,-33.29486 -7.74737,-13.140364 -21.24334,-19.538039 -30.1437,-14.290485 -8.90063,5.247847 -9.83601,20.154775 -2.08922,33.294855 1.25004,2.11958 2.65069,4.0605 4.15642,5.80845 v 13.86875 l -19.1836,-10.97841 V 63.259709 l -6.72408,-4.438727 c -6.12539,11.160231 -9.60898,23.976207 -9.60898,37.605308 0,42.34696 33.6015,76.82285 75.60974,78.21434 l 0.008,-8.06775 z"
           id="path4918"
           inkscape:connector-curvature="0"
           style="fill:#000000;stroke:none;stroke-width:0.76200002;stroke-miterlimit:4;stroke-dasharray:none" />
        <path
           d="m 644.36548,47.951942 11.72512,6.948838 c -0.23106,1.926604 -0.2385,4.047612 -0.23106,4.77686 0.10735,10.331632 14.09952,18.185791 29.35288,18.027746 15.25337,-0.158045 26.11726,-9.398825 26.04025,-18.49014 -0.087,-10.331351 -10.02214,-18.420289 -25.26978,-18.874957 -5.16195,-0.15403 -10.13779,0.876699 -12.40367,1.309606 l -8.55163,-5.470312 20.33888,-11.604585 59.95752,34.851545 6.8764,-3.774472 C 745.58511,44.775012 736.21636,35.361871 724.40477,28.561351 687.70564,7.4322509 641.06199,19.350633 618.89672,55.061974 l 6.82028,4.306729 z"
           id="path4920"
           inkscape:connector-curvature="0"
           style="fill:#000000;stroke:none;stroke-width:0.76200002;stroke-miterlimit:4;stroke-dasharray:none" />
        <path
           d="m 747.34709,85.832977 -12.75013,6.664519 c -0.4621,-0.07726 -3.29231,-2.726277 -3.92907,-3.081876 -9.02634,-5.028532 -22.31473,1.620242 -29.73856,14.94586 -7.42412,13.32504 -6.79107,28.56065 2.23468,33.59033 9.02661,5.02824 22.46705,-1.00467 29.89202,-14.32971 1.19736,-2.14965 2.79642,-7.1401 3.54399,-9.32209 l 10.86217,-6.27944 -0.0644,23.84221 -59.79692,34.92169 0.0289,7.86818 c 12.72608,-0.35302 25.54578,-3.82344 37.30697,-10.70984 36.54222,-21.39795 49.31382,-67.814852 29.28818,-104.76822 l -6.87783,3.776755 z"
           id="path4922"
           inkscape:connector-curvature="0"
           style="fill:#000000;stroke:none;stroke-width:0.76200002;stroke-miterlimit:4;stroke-dasharray:none" />
      </g>
    </g>
  </g>
</svg>
